<svg xmlns="http://www.w3.org/2000/svg" viewBox="0 0 64 64">
  <path d="M18 8h20l10 10v34a4 4 0 0 1-4 4H18a4 4 0 0 1-4-4V12a4 4 0 0 1 4-4Z" fill="#030906" stroke="#7ADDB4" stroke-width="3" stroke-linejoin="round"/>
  <path d="M38 8v14h14" fill="none" stroke="#4FF1B3" stroke-width="3" stroke-linejoin="round"/>
  <path d="M26 24c-3 2-5 5-5 10s2 8 5 10M38 24c3 2 5 5 5 10s-2 8-5 10" fill="none" stroke="#8EF9C9" stroke-width="3" stroke-linecap="round"/>
  <path d="M30 34h4" stroke="#68DCC1" stroke-width="3" stroke-linecap="round"/>
</svg>
