<svg xmlns="http://www.w3.org/2000/svg" viewBox="0 0 64 64">
  <path d="M18 8h20l10 10v34a4 4 0 0 1-4 4H18a4 4 0 0 1-4-4V12a4 4 0 0 1 4-4Z" fill="#030906" stroke="#7ADDB4" stroke-width="3" stroke-linejoin="round"/>
  <path d="M38 8v14h14" fill="none" stroke="#4FF1B3" stroke-width="3" stroke-linejoin="round"/>
  <path d="M22 28h18M31 28v18" stroke="#8EF9C9" stroke-width="3" stroke-linecap="round"/>
  <path d="M41 29h-2c-3 0-6 2-6 5s2 5 6 5h2c3 0 5 2 5 4s-2 4-5 4h-5" fill="none" stroke="#68DCC1" stroke-width="3" stroke-linecap="round"/>
</svg>
